<?xml version="1.0" encoding="utf-8"?>
<!-- Generator: Adobe Illustrator 27.3.1, SVG Export Plug-In . SVG Version: 6.00 Build 0)  -->
<svg version="1.1" id="Layer_1" xmlns="http://www.w3.org/2000/svg" xmlns:xlink="http://www.w3.org/1999/xlink" x="0px" y="0px"
	 viewBox="0 0 612 792" style="enable-background:new 0 0 612 792;" xml:space="preserve">
<style type="text/css">
	.st0{fill:url(#SVGID_1_);}
	.st1{fill:url(#SVGID_00000100364103837680500770000001925549441587715968_);}
	.st2{fill:url(#SVGID_00000029027485750389483350000008132663493613458877_);}
	.st3{fill:url(#SVGID_00000080918485667894631000000002511133709543739295_);}
	.st4{fill:url(#SVGID_00000080885453713879937290000009106014797224223619_);}
</style>
<g>
	<linearGradient id="SVGID_1_" gradientUnits="userSpaceOnUse" x1="38.6375" y1="498.4264" x2="478.1507" y2="216.3663">
		<stop  offset="0.0247" style="stop-color:#E2AC2D"/>
		<stop  offset="0.0827" style="stop-color:#E2BB35"/>
		<stop  offset="0.1416" style="stop-color:#E3C53A"/>
		<stop  offset="0.1891" style="stop-color:#E3C93C"/>
		<stop  offset="0.2813" style="stop-color:#DDB532"/>
		<stop  offset="0.3926" style="stop-color:#D8A12B"/>
		<stop  offset="0.4586" style="stop-color:#D69A29"/>
		<stop  offset="0.5529" style="stop-color:#D39629"/>
		<stop  offset="0.6694" style="stop-color:#CD8929"/>
		<stop  offset="0.7809" style="stop-color:#C57A2A"/>
		<stop  offset="1" style="stop-color:#CB842C"/>
	</linearGradient>
	<path class="st0" d="M406.41,336.43c-2.69,14.12-9.81,25.84-19.46,36.2c-0.76,0.83-1.44,1.91-1.74,2.98
		c-3.82,13.56-10.7,25.32-20.7,35.25c-6.42,6.39-13.85,11.42-22.32,14.55c-9.43,3.5-19.14,4.49-29.16,2.32
		c-15.69-3.38-27.78-12.11-37.43-24.51c-6.28-8.07-10.9-17.02-13.75-26.88c-0.42-1.49-1.3-3-2.36-4.15
		c-12.38-13.41-20.07-28.82-20.14-47.43c-0.03-4.84,0.26-9.7,2.5-14.17c1.02-2.06,2.32-3.82,4.52-4.81
		c0.39-0.18,0.72-0.94,0.73-1.44c0.11-8.61,0.22-17.22,0.26-25.84c0.07-14.54,4.23-27.79,12.4-39.79
		c4.83-7.08,10.96-12.94,18.28-17.27c6.65-3.93,13.5-7.57,21.35-8.95c5.76-1.02,11.46-2.21,17.4-2.35l13.79-0.07
		c7.34,0.23,14.47,1.75,21.4,3.77c9.11,2.66,17.77,6.44,24.75,13.25c5.28,5.14,7.81,11.58,9.1,18.64c0.3,1.61,0.99,2.81,2.2,4
		c4.84,4.79,7.77,10.67,9.4,17.25c2.55,10.29,3.57,20.72,2.98,31.3c-0.11,1.97-0.3,3.93-0.34,5.9c-0.01,0.53,0.22,1.37,0.58,1.56
		c3.3,1.65,4.65,4.71,5.51,7.93C408.14,321.21,407.84,328.81,406.41,336.43z"/>
	
		<linearGradient id="SVGID_00000182511728295527192640000003770129098007437956_" gradientUnits="userSpaceOnUse" x1="-9.2701" y1="423.7755" x2="430.243" y2="141.7155">
		<stop  offset="0.0247" style="stop-color:#E2AC2D"/>
		<stop  offset="0.0827" style="stop-color:#E2BB35"/>
		<stop  offset="0.1416" style="stop-color:#E3C53A"/>
		<stop  offset="0.1891" style="stop-color:#E3C93C"/>
		<stop  offset="0.2813" style="stop-color:#DDB532"/>
		<stop  offset="0.3926" style="stop-color:#D8A12B"/>
		<stop  offset="0.4586" style="stop-color:#D69A29"/>
		<stop  offset="0.5529" style="stop-color:#D39629"/>
		<stop  offset="0.6694" style="stop-color:#CD8929"/>
		<stop  offset="0.7809" style="stop-color:#C57A2A"/>
		<stop  offset="1" style="stop-color:#CB842C"/>
	</linearGradient>
	<path style="fill:url(#SVGID_00000182511728295527192640000003770129098007437956_);" d="M330.56,210.08l-13.79,0.07
		C316.77,210.15,327.04,209.13,330.56,210.08z"/>
	
		<linearGradient id="SVGID_00000166669202449522519320000008023730658262863233_" gradientUnits="userSpaceOnUse" x1="127.5234" y1="636.9307" x2="567.0366" y2="354.8706">
		<stop  offset="0.0247" style="stop-color:#E2AC2D"/>
		<stop  offset="0.0827" style="stop-color:#E2BB35"/>
		<stop  offset="0.1416" style="stop-color:#E3C53A"/>
		<stop  offset="0.1891" style="stop-color:#E3C93C"/>
		<stop  offset="0.2813" style="stop-color:#DDB532"/>
		<stop  offset="0.3926" style="stop-color:#D8A12B"/>
		<stop  offset="0.4586" style="stop-color:#D69A29"/>
		<stop  offset="0.5529" style="stop-color:#D39629"/>
		<stop  offset="0.6694" style="stop-color:#CD8929"/>
		<stop  offset="0.7809" style="stop-color:#C57A2A"/>
		<stop  offset="1" style="stop-color:#CB842C"/>
	</linearGradient>
	<path style="fill:url(#SVGID_00000166669202449522519320000008023730658262863233_);" d="M104.38,569.83
		c1.5-0.86,3.04-1.67,4.51-2.59c9.38-5.81,19.09-11.01,29.22-15.36c7.84-3.37,15.8-6.47,23.71-9.67c7.82-3.16,16.07-4.6,24.38-5.57
		c3.78-0.44,7.65-0.11,11.47-0.25c9.31-0.35,18.32,1.66,27.41,3.21c9.17,1.56,17.96,4.4,26.68,7.44c7.16,2.49,14.19,5.35,21.22,8.2
		c5.31,2.15,10.54,4.49,15.76,6.85c9.82,4.44,19.5,9.24,29.46,13.35c6.36,2.63,13.12,4.29,19.71,6.37c0.79,0.25,1.62,0.36,2.43,0.53
		c-78.65,0-157.3,0-235.94,0C104.38,578.16,104.38,573.99,104.38,569.83z"/>
	
		<linearGradient id="SVGID_00000021107929314912958440000009267209103892529083_" gradientUnits="userSpaceOnUse" x1="128.3049" y1="638.1484" x2="567.8181" y2="356.0884">
		<stop  offset="0.0247" style="stop-color:#E2AC2D"/>
		<stop  offset="0.0827" style="stop-color:#E2BB35"/>
		<stop  offset="0.1416" style="stop-color:#E3C53A"/>
		<stop  offset="0.1891" style="stop-color:#E3C93C"/>
		<stop  offset="0.2813" style="stop-color:#DDB532"/>
		<stop  offset="0.3926" style="stop-color:#D8A12B"/>
		<stop  offset="0.4586" style="stop-color:#D69A29"/>
		<stop  offset="0.5529" style="stop-color:#D39629"/>
		<stop  offset="0.6694" style="stop-color:#CD8929"/>
		<stop  offset="0.7809" style="stop-color:#C57A2A"/>
		<stop  offset="1" style="stop-color:#CB842C"/>
	</linearGradient>
	<path style="fill:url(#SVGID_00000021107929314912958440000009267209103892529083_);" d="M139.63,532.51
		c0.58-3.59,1.1-6.79,1.61-10c2.15-13.49,6.88-26.15,12.63-38.45c3.62-7.76,7.98-15.11,13.59-21.64
		c7.1-8.28,15.19-15.45,24.91-20.43c10.1-5.18,20.44-9.88,30.74-14.65c5.45-2.52,11.03-4.79,16.58-7.1
		c5.81-2.42,11.65-4.77,17.49-7.11c1.18-0.48,2.43-0.8,3.86-1.27c0.15,0.49,0.34,1.04,0.47,1.61c2.33,9.61,4.68,19.22,6.98,28.84
		c1.37,5.74,2.49,11.54,4.06,17.23c3.2,11.54,6.57,23.03,11.33,34.05c4.02,9.29,8.96,18.06,16.09,25.36
		c6.2,6.35,13.66,10.32,22.72,10.39c6.36,0.05,12.26-1.65,17.58-5.41c8.2-5.79,13.82-13.65,18.22-22.43
		c5.06-10.12,9.18-20.62,12.02-31.61c1.59-6.14,3.7-12.15,5.29-18.29c1.97-7.61,3.66-15.29,5.44-22.94
		c1.17-5.03,2.28-10.08,3.44-15.11c0.14-0.62,0.43-1.21,0.73-2.03c11.47,4.86,22.76,9.57,34,14.42c8.67,3.74,17.36,7.46,25.86,11.55
		c6.12,2.94,12.12,6.14,17.66,10.18c8.65,6.31,16.05,13.71,21.8,22.78c8.94,14.1,15.3,29.28,19,45.52
		c2.19,9.59,3.84,19.31,3.91,29.22c0.03,4.36-1.35,6.57-5.45,8.08c-20.7,7.63-41.75,13.79-63.74,16.97
		c-14.19,2.05-28.69,4.02-43.05,3.69c-1.52-0.04-3.04-0.1-4.55-0.19c-14.69-0.88-29.2-3.63-43.43-7.31
		c-11.44-2.96-22.76-6.47-33.74-10.84c-11.27-4.48-21.83-10.4-32.92-15.28c-6.53-2.87-13.21-5.41-19.92-7.85
		c-6.07-2.21-12.19-4.33-18.41-6.05c-6.81-1.88-13.71-3.52-20.66-4.77c-9.93-1.8-19.98-2.65-30.08-2.13
		c-6.85,0.35-13.66,1.14-20.33,2.97c-3.79,1.04-7.71,1.6-11.46,2.76c-5.03,1.55-9.95,3.46-14.9,5.23
		C143.34,531.04,141.74,531.7,139.63,532.51z"/>
	
		<linearGradient id="SVGID_00000040545536152028239190000013883875098839884973_" gradientUnits="userSpaceOnUse" x1="-9.2701" y1="423.7755" x2="430.243" y2="141.7155">
		<stop  offset="0.0247" style="stop-color:#E2AC2D"/>
		<stop  offset="0.0827" style="stop-color:#E2BB35"/>
		<stop  offset="0.1416" style="stop-color:#E3C53A"/>
		<stop  offset="0.1891" style="stop-color:#E3C93C"/>
		<stop  offset="0.2813" style="stop-color:#DDB532"/>
		<stop  offset="0.3926" style="stop-color:#D8A12B"/>
		<stop  offset="0.4586" style="stop-color:#D69A29"/>
		<stop  offset="0.5529" style="stop-color:#D39629"/>
		<stop  offset="0.6694" style="stop-color:#CD8929"/>
		<stop  offset="0.7809" style="stop-color:#C57A2A"/>
		<stop  offset="1" style="stop-color:#CB842C"/>
	</linearGradient>
	<path style="fill:url(#SVGID_00000040545536152028239190000013883875098839884973_);" d="M330.56,210.08l-13.79,0.07
		C316.77,210.15,327.04,209.13,330.56,210.08z"/>
</g>
</svg>
