<?xml version="1.0" encoding="utf-8"?>
<!-- Generator: Adobe Illustrator 27.3.1, SVG Export Plug-In . SVG Version: 6.00 Build 0)  -->
<svg version="1.1" id="Layer_1" xmlns="http://www.w3.org/2000/svg" xmlns:xlink="http://www.w3.org/1999/xlink" x="0px" y="0px"
	 viewBox="0 0 1080 1080" style="enable-background:new 0 0 1080 1080;" xml:space="preserve">
<style type="text/css">
	.st0{fill:none;stroke:url(#SVGID_1_);stroke-width:3;stroke-miterlimit:10;}
	.st1{fill:none;stroke:url(#SVGID_00000057847166454892338730000006415444188028694973_);stroke-width:3;stroke-miterlimit:10;}
	.st2{fill:none;stroke:url(#SVGID_00000129922270452917821710000003753402887193279675_);stroke-width:3;stroke-miterlimit:10;}
	.st3{fill:none;stroke:url(#SVGID_00000137847284235156208180000005214131117907409049_);stroke-width:3;stroke-miterlimit:10;}
	.st4{fill:none;stroke:url(#SVGID_00000139292179988062303480000017838330665351629201_);stroke-width:3;stroke-miterlimit:10;}
	.st5{fill:none;stroke:url(#SVGID_00000127725816189445512840000004963631957459950250_);stroke-width:3;stroke-miterlimit:10;}
	.st6{fill:none;stroke:url(#SVGID_00000116952109938933952880000002295050746456045970_);stroke-width:3;stroke-miterlimit:10;}
	.st7{fill:none;stroke:url(#SVGID_00000008849014246514042970000000608334234687793305_);stroke-width:3;stroke-miterlimit:10;}
	.st8{fill:none;stroke:url(#SVGID_00000023282517439268321140000003608859599000113547_);stroke-width:3;stroke-miterlimit:10;}
	.st9{fill:none;stroke:url(#SVGID_00000062156901297667441210000015415435880783302587_);stroke-width:3;stroke-miterlimit:10;}
	.st10{fill:none;stroke:url(#SVGID_00000089561823085760987390000006401203961036260522_);stroke-width:3;stroke-miterlimit:10;}
	.st11{fill:none;stroke:url(#SVGID_00000034772529041561322750000014788619606699953309_);stroke-width:3;stroke-miterlimit:10;}
	.st12{fill:none;stroke:url(#SVGID_00000010297975936656012040000012224604529313537451_);stroke-width:3;stroke-miterlimit:10;}
	.st13{fill:url(#SVGID_00000167395082732168227150000008304235988638890895_);}
	.st14{fill:url(#SVGID_00000171703058985500523690000003007353280146242691_);}
	.st15{fill:url(#SVGID_00000133506769233968874200000006407241472251901878_);}
	.st16{fill:url(#SVGID_00000176729855119867372960000003625166652904591242_);}
	.st17{fill:url(#SVGID_00000078014716386042838620000009111966590622448039_);}
	.st18{fill:url(#SVGID_00000051352932765306773560000016517016209872775092_);}
	.st19{fill:url(#SVGID_00000114781025895826144140000005630089594414265526_);}
	.st20{fill:url(#SVGID_00000011024561876557404510000001646334224506238376_);}
	.st21{fill:url(#SVGID_00000181798367327925020760000005322440604670111150_);}
	.st22{fill:url(#SVGID_00000162344536620458412360000012467335946381989807_);}
	.st23{fill:url(#SVGID_00000150812340573462740480000003298520545317197717_);}
	.st24{fill:url(#SVGID_00000003093632008911041610000014258898951007008430_);}
	.st25{fill:url(#SVGID_00000139259382518920243730000014844070526638316714_);}
	.st26{fill:url(#SVGID_00000119825980639195754410000007450666625658407825_);}
	.st27{fill:url(#SVGID_00000163757157430916830010000010632983087161852300_);}
	.st28{fill:url(#SVGID_00000012467543555871142180000010236866461826091708_);}
	.st29{fill:url(#SVGID_00000017503928545817265980000009761117777022612120_);}
	.st30{fill:url(#SVGID_00000134946710013500962800000002027389514174086793_);}
	.st31{fill:url(#SVGID_00000104687142527502070060000002457715577860566183_);}
	.st32{fill:url(#SVGID_00000168816774024179276820000013590037584729555332_);}
	.st33{fill:url(#SVGID_00000049914288108005910720000011298654327752395667_);}
	.st34{fill:url(#SVGID_00000152252473332742280730000008700639861757077128_);}
	.st35{fill:url(#SVGID_00000114780680950685354450000008267391823517686203_);}
	.st36{fill:#FFFFFF;}
	.st37{fill-rule:evenodd;clip-rule:evenodd;fill:#FFFFFF;}
	.st38{fill:url(#SVGID_00000165208669562574638520000001828102517439221430_);}
	.st39{fill:url(#SVGID_00000176019910392788696610000013949617887095882653_);}
	.st40{fill:url(#SVGID_00000062880255424551142830000000395716704651650450_);}
	.st41{fill:url(#SVGID_00000155845198539242989910000010195106951194187962_);}
</style>
<g>
	
		<image style="overflow:visible;opacity:0.65;enable-background:new    ;" width="3016" height="3974" xlink:href="43986ACB.png"  transform="matrix(0.2399 0 0 0.2399 178.1711 63.24)">
	</image>
	<g>
		<g>
			<g>
				<g>
					
						<linearGradient id="SVGID_1_" gradientUnits="userSpaceOnUse" x1="557.8911" y1="795.7294" x2="687.4511" y2="795.7294" gradientTransform="matrix(1 0 0 -1 0 1080)">
						<stop  offset="0" style="stop-color:#788199"/>
						<stop  offset="1" style="stop-color:#3A404B"/>
					</linearGradient>
					<line class="st0" x1="557.9" y1="284.3" x2="687.5" y2="284.3"/>
					
						<linearGradient id="SVGID_00000121279438285830128310000017042239780089253306_" gradientUnits="userSpaceOnUse" x1="667.0411" y1="795.7294" x2="840.421" y2="795.7294" gradientTransform="matrix(1 0 0 -1 0 1080)">
						<stop  offset="0" style="stop-color:#788199"/>
						<stop  offset="1" style="stop-color:#3A404B"/>
					</linearGradient>
					
						<line style="fill:none;stroke:url(#SVGID_00000121279438285830128310000017042239780089253306_);stroke-width:3;stroke-miterlimit:10;" x1="840.4" y1="284.3" x2="667" y2="284.3"/>
					
						<linearGradient id="SVGID_00000080899176591807359580000007134655538378288789_" gradientUnits="userSpaceOnUse" x1="669.1741" y1="722.0644" x2="672.1741" y2="722.0644" gradientTransform="matrix(1 0 0 -1 0 1080)">
						<stop  offset="0" style="stop-color:#788199"/>
						<stop  offset="1" style="stop-color:#3A404B"/>
					</linearGradient>
					
						<line style="fill:none;stroke:url(#SVGID_00000080899176591807359580000007134655538378288789_);stroke-width:3;stroke-miterlimit:10;" x1="670.7" y1="414.6" x2="670.7" y2="301.3"/>
					
						<linearGradient id="SVGID_00000143576197594857156880000001953955557356095896_" gradientUnits="userSpaceOnUse" x1="699.9804" y1="738.5344" x2="786.6118" y2="738.5344" gradientTransform="matrix(1 0 0 -1 0 1080)">
						<stop  offset="0" style="stop-color:#788199"/>
						<stop  offset="1" style="stop-color:#3A404B"/>
					</linearGradient>
					
						<line style="fill:none;stroke:url(#SVGID_00000143576197594857156880000001953955557356095896_);stroke-width:3;stroke-miterlimit:10;" x1="785.6" y1="383.7" x2="701" y2="299.2"/>
					
						<linearGradient id="SVGID_00000136405123342930661960000015138272246618897816_" gradientUnits="userSpaceOnUse" x1="685.8704" y1="851.0044" x2="786.6118" y2="851.0044" gradientTransform="matrix(1 0 0 -1 0 1080)">
						<stop  offset="0" style="stop-color:#788199"/>
						<stop  offset="1" style="stop-color:#3A404B"/>
					</linearGradient>
					
						<line style="fill:none;stroke:url(#SVGID_00000136405123342930661960000015138272246618897816_);stroke-width:3;stroke-miterlimit:10;" x1="785.6" y1="179.7" x2="686.9" y2="278.3"/>
					
						<linearGradient id="SVGID_00000182522489458687415200000000078712851392929695_" gradientUnits="userSpaceOnUse" x1="669.1785" y1="882.7244" x2="688.4236" y2="882.7244" gradientTransform="matrix(1 0 0 -1 0 1080)">
						<stop  offset="0" style="stop-color:#788199"/>
						<stop  offset="1" style="stop-color:#3A404B"/>
					</linearGradient>
					
						<line style="fill:none;stroke:url(#SVGID_00000182522489458687415200000000078712851392929695_);stroke-width:3;stroke-miterlimit:10;" x1="670.7" y1="116.2" x2="686.9" y2="278.3"/>
					
						<linearGradient id="SVGID_00000175313104715778956040000013706518264759804349_" gradientUnits="userSpaceOnUse" x1="556.9422" y1="850.9444" x2="679.7499" y2="850.9444" gradientTransform="matrix(1 0 0 -1 0 1080)">
						<stop  offset="0" style="stop-color:#788199"/>
						<stop  offset="1" style="stop-color:#3A404B"/>
					</linearGradient>
					
						<line style="fill:none;stroke:url(#SVGID_00000175313104715778956040000013706518264759804349_);stroke-width:3;stroke-miterlimit:10;" x1="557.9" y1="179.7" x2="678.8" y2="278.4"/>
					
						<linearGradient id="SVGID_00000103968266619186467360000003726110130637321111_" gradientUnits="userSpaceOnUse" x1="397.6568" y1="728.1644" x2="475.3753" y2="728.1644" gradientTransform="matrix(1 0 0 -1 0 1080)">
						<stop  offset="0" style="stop-color:#788199"/>
						<stop  offset="1" style="stop-color:#3A404B"/>
					</linearGradient>
					
						<line style="fill:none;stroke:url(#SVGID_00000103968266619186467360000003726110130637321111_);stroke-width:3;stroke-miterlimit:10;" x1="474.4" y1="316.5" x2="398.7" y2="387.2"/>
					
						<linearGradient id="SVGID_00000122722402256845281860000013897877807164048015_" gradientUnits="userSpaceOnUse" x1="262.85" y1="758.8644" x2="392.412" y2="758.8644" gradientTransform="matrix(1 0 0 -1 0 1080)">
						<stop  offset="0" style="stop-color:#788199"/>
						<stop  offset="1" style="stop-color:#3A404B"/>
					</linearGradient>
					
						<line style="fill:none;stroke:url(#SVGID_00000122722402256845281860000013897877807164048015_);stroke-width:3;stroke-miterlimit:10;" x1="263.9" y1="258.6" x2="391.4" y2="383.7"/>
					
						<linearGradient id="SVGID_00000039099468919859114100000000869141048215657125_" gradientUnits="userSpaceOnUse" x1="223.6067" y1="681.3494" x2="382.1154" y2="681.3494" gradientTransform="matrix(1 0 0 -1 0 1080)">
						<stop  offset="0" style="stop-color:#788199"/>
						<stop  offset="1" style="stop-color:#3A404B"/>
					</linearGradient>
					
						<line style="fill:none;stroke:url(#SVGID_00000039099468919859114100000000869141048215657125_);stroke-width:3;stroke-miterlimit:10;" x1="223.7" y1="402.6" x2="382" y2="394.7"/>
					
						<linearGradient id="SVGID_00000098183313322435243490000007670578158705489596_" gradientUnits="userSpaceOnUse" x1="307.7593" y1="628.5944" x2="383.1728" y2="628.5944" gradientTransform="matrix(1 0 0 -1 0 1080)">
						<stop  offset="0" style="stop-color:#788199"/>
						<stop  offset="1" style="stop-color:#3A404B"/>
					</linearGradient>
					
						<line style="fill:none;stroke:url(#SVGID_00000098183313322435243490000007670578158705489596_);stroke-width:3;stroke-miterlimit:10;" x1="308.9" y1="493.5" x2="382" y2="409.4"/>
					
						<linearGradient id="SVGID_00000097461442343931259460000002697248750194073229_" gradientUnits="userSpaceOnUse" x1="397.1818" y1="620.6994" x2="402.9803" y2="620.6994" gradientTransform="matrix(1 0 0 -1 0 1080)">
						<stop  offset="0" style="stop-color:#788199"/>
						<stop  offset="1" style="stop-color:#3A404B"/>
					</linearGradient>
					
						<line style="fill:none;stroke:url(#SVGID_00000097461442343931259460000002697248750194073229_);stroke-width:3;stroke-miterlimit:10;" x1="401.5" y1="504" x2="398.7" y2="414.6"/>
					
						<linearGradient id="SVGID_00000140003420015448870650000009633720093459899553_" gradientUnits="userSpaceOnUse" x1="397.1856" y1="757.1244" x2="400.1856" y2="757.1244" gradientTransform="matrix(1 0 0 -1 0 1080)">
						<stop  offset="0" style="stop-color:#788199"/>
						<stop  offset="1" style="stop-color:#3A404B"/>
					</linearGradient>
					
						<line style="fill:none;stroke:url(#SVGID_00000140003420015448870650000009633720093459899553_);stroke-width:3;stroke-miterlimit:10;" x1="398.7" y1="258.6" x2="398.7" y2="387.2"/>
				</g>
				<g>
					<g>
						
							<linearGradient id="SVGID_00000038409814812932364430000010166853141743973544_" gradientUnits="userSpaceOnUse" x1="617.3763" y1="756.7904" x2="617.3763" y2="139.1459" gradientTransform="matrix(1 0 0 -1 0 1080)">
							<stop  offset="0" style="stop-color:#788199"/>
							<stop  offset="1" style="stop-color:#3A404B"/>
						</linearGradient>
						<path style="fill:url(#SVGID_00000038409814812932364430000010166853141743973544_);" d="M583.7,849.4
							c-1.6-109.8-4-330.3,1-415.5c6.5-109.8,79.2-131.7,82.3-132.6l-1.9-6.7l-1.9-6.8c-3.5,1-85.5,25-92.6,145.2
							c-5,85.6-2.7,306.4-1.1,416.4H583.7z"/>
					</g>
					<g>
						
							<linearGradient id="SVGID_00000171711124201198764980000006373072509953867674_" gradientUnits="userSpaceOnUse" x1="464.981" y1="756.7908" x2="464.981" y2="139.1454" gradientTransform="matrix(1 0 0 -1 0 1080)">
							<stop  offset="0" style="stop-color:#788199"/>
							<stop  offset="1" style="stop-color:#3A404B"/>
						</linearGradient>
						<path style="fill:url(#SVGID_00000171711124201198764980000006373072509953867674_);" d="M482.8,664.9v184.5h14V664.9
							c0-48.2-54.5-78.6-56.8-79.9l-6.7,12.3C433.7,597.6,482.8,624.9,482.8,664.9z"/>
					</g>
					<g>
						
							<linearGradient id="SVGID_00000078019530035177418480000010645232069227080885_" gradientUnits="userSpaceOnUse" x1="471.2299" y1="756.791" x2="471.2299" y2="139.1502" gradientTransform="matrix(1 0 0 -1 0 1080)">
							<stop  offset="0" style="stop-color:#788199"/>
							<stop  offset="1" style="stop-color:#3A404B"/>
						</linearGradient>
						<path style="fill:url(#SVGID_00000078019530035177418480000010645232069227080885_);" d="M510,552.2
							c3.8,56.2,1.9,219.7,0.7,297.2h14c1.2-77.8,3.1-241.5-0.7-298.1c-2.2-32.6-20.4-66.2-52.7-97.2c-24-23-47.1-36.5-48.1-37
							l-7,12.1C417.1,429.7,505.2,481.4,510,552.2z"/>
					</g>
					<g>
						
							<linearGradient id="SVGID_00000008116729340605972170000003640775798965532566_" gradientUnits="userSpaceOnUse" x1="620.9661" y1="756.7904" x2="620.9661" y2="139.1451" gradientTransform="matrix(1 0 0 -1 0 1080)">
							<stop  offset="0" style="stop-color:#788199"/>
							<stop  offset="1" style="stop-color:#3A404B"/>
						</linearGradient>
						<path style="fill:url(#SVGID_00000008116729340605972170000003640775798965532566_);" d="M609.2,849.4V604
							c0-72.5,36-82.8,37.6-83.2l-3.3-13.6c-2,0.5-48.2,12.5-48.2,96.8v245.4H609.2z"/>
					</g>
					<g>
						
							<linearGradient id="SVGID_00000135653892218084897670000007604113197348954298_" gradientUnits="userSpaceOnUse" x1="525.5911" y1="756.7908" x2="525.5911" y2="139.1469" gradientTransform="matrix(1 0 0 -1 0 1080)">
							<stop  offset="0" style="stop-color:#788199"/>
							<stop  offset="1" style="stop-color:#3A404B"/>
						</linearGradient>
						<path style="fill:url(#SVGID_00000135653892218084897670000007604113197348954298_);" d="M537.9,452.3v397.1h14V452.3
							c0-52.9-48.9-65-49.4-65.1l-3.2,13.6C500.9,401.2,537.9,410.6,537.9,452.3z"/>
					</g>
				</g>
				
					<linearGradient id="SVGID_00000098937247436991724000000009883228004877160381_" gradientUnits="userSpaceOnUse" x1="327.751" y1="811.1594" x2="214.5911" y2="811.1594" gradientTransform="matrix(1 0 0 -1 0 1080)">
					<stop  offset="0" style="stop-color:#0FFFFF"/>
					<stop  offset="0.1813" style="stop-color:#15EDFF"/>
					<stop  offset="0.5439" style="stop-color:#25BFFF"/>
					<stop  offset="1" style="stop-color:#3C7DFF"/>
				</linearGradient>
				<circle style="fill:url(#SVGID_00000098937247436991724000000009883228004877160381_);" cx="271.2" cy="268.8" r="56.6"/>
				
					<linearGradient id="SVGID_00000147210276229260460860000007772487736723238278_" gradientUnits="userSpaceOnUse" x1="259.1711" y1="677.4194" x2="188.1911" y2="677.4194" gradientTransform="matrix(1 0 0 -1 0 1080)">
					<stop  offset="0" style="stop-color:#FF88FF"/>
					<stop  offset="1" style="stop-color:#FF1EA8"/>
				</linearGradient>
				<circle style="fill:url(#SVGID_00000147210276229260460860000007772487736723238278_);" cx="223.7" cy="402.6" r="35.5"/>
				
					<linearGradient id="SVGID_00000178925885736959572730000017066238711253064107_" gradientUnits="userSpaceOnUse" x1="338.901" y1="586.5494" x2="278.881" y2="586.5494" gradientTransform="matrix(1 0 0 -1 0 1080)">
					<stop  offset="0" style="stop-color:#59C3E8"/>
					<stop  offset="0.2992" style="stop-color:#8AD0B5"/>
					<stop  offset="0.618" style="stop-color:#B7DC85"/>
					<stop  offset="0.8619" style="stop-color:#D3E467"/>
					<stop  offset="1" style="stop-color:#DEE75C"/>
				</linearGradient>
				<circle style="fill:url(#SVGID_00000178925885736959572730000017066238711253064107_);" cx="308.9" cy="493.5" r="30"/>
				
					<linearGradient id="SVGID_00000097488555669958453920000017034587009763815822_" gradientUnits="userSpaceOnUse" x1="423.6811" y1="575.9794" x2="379.2812" y2="575.9794" gradientTransform="matrix(1 0 0 -1 0 1080)">
					<stop  offset="0" style="stop-color:#6960F1"/>
					<stop  offset="1" style="stop-color:#FF79FF"/>
				</linearGradient>
				<path style="fill:url(#SVGID_00000097488555669958453920000017034587009763815822_);" d="M423.7,504c0,12.3-9.9,22.2-22.2,22.2
					s-22.2-9.9-22.2-22.2s9.9-22.2,22.2-22.2C413.7,481.8,423.7,491.8,423.7,504z"/>
				
					<linearGradient id="SVGID_00000162309784813274245970000017385435899074414758_" gradientUnits="userSpaceOnUse" x1="447.771" y1="821.4494" x2="355.1909" y2="821.4494" gradientTransform="matrix(1 0 0 -1 0 1080)">
					<stop  offset="0" style="stop-color:#6960F1"/>
					<stop  offset="1" style="stop-color:#FF79FF"/>
				</linearGradient>
				<circle style="fill:url(#SVGID_00000162309784813274245970000017385435899074414758_);" cx="401.5" cy="258.6" r="46.3"/>
				
					<linearGradient id="SVGID_00000156557704120916003100000013571909789858707613_" gradientUnits="userSpaceOnUse" x1="600.351" y1="900.3194" x2="515.4311" y2="900.3194" gradientTransform="matrix(1 0 0 -1 0 1080)">
					<stop  offset="0" style="stop-color:#59C3E8"/>
					<stop  offset="0.2992" style="stop-color:#8AD0B5"/>
					<stop  offset="0.618" style="stop-color:#B7DC85"/>
					<stop  offset="0.8619" style="stop-color:#D3E467"/>
					<stop  offset="1" style="stop-color:#DEE75C"/>
				</linearGradient>
				<circle style="fill:url(#SVGID_00000156557704120916003100000013571909789858707613_);" cx="557.9" cy="179.7" r="42.5"/>
				
					<linearGradient id="SVGID_00000155142298135754016150000001596592756931923130_" gradientUnits="userSpaceOnUse" x1="713.5411" y1="963.7594" x2="627.8011" y2="963.7594" gradientTransform="matrix(1 0 0 -1 0 1080)">
					<stop  offset="0" style="stop-color:#0FFFFF"/>
					<stop  offset="0.1813" style="stop-color:#15EDFF"/>
					<stop  offset="0.5439" style="stop-color:#25BFFF"/>
					<stop  offset="1" style="stop-color:#3C7DFF"/>
				</linearGradient>
				<circle style="fill:url(#SVGID_00000155142298135754016150000001596592756931923130_);" cx="670.7" cy="116.2" r="42.9"/>
				
					<linearGradient id="SVGID_00000107563273490810197660000007245025476492336037_" gradientUnits="userSpaceOnUse" x1="816.4112" y1="900.3194" x2="754.6911" y2="900.3194" gradientTransform="matrix(1 0 0 -1 0 1080)">
					<stop  offset="0" style="stop-color:#FF63B3"/>
					<stop  offset="1" style="stop-color:#FFE578"/>
				</linearGradient>
				<circle style="fill:url(#SVGID_00000107563273490810197660000007245025476492336037_);" cx="785.6" cy="179.7" r="30.9"/>
				
					<linearGradient id="SVGID_00000139286387875233334120000005299170556119061891_" gradientUnits="userSpaceOnUse" x1="881.5709" y1="795.7294" x2="799.2711" y2="795.7294" gradientTransform="matrix(1 0 0 -1 0 1080)">
					<stop  offset="0" style="stop-color:#0FFFFF"/>
					<stop  offset="0.1813" style="stop-color:#15EDFF"/>
					<stop  offset="0.5439" style="stop-color:#25BFFF"/>
					<stop  offset="1" style="stop-color:#3C7DFF"/>
				</linearGradient>
				<circle style="fill:url(#SVGID_00000139286387875233334120000005299170556119061891_);" cx="840.4" cy="284.3" r="41.1"/>
				
					<linearGradient id="SVGID_00000072998227315348798970000015186542653734970762_" gradientUnits="userSpaceOnUse" x1="816.4112" y1="696.2794" x2="754.6911" y2="696.2794" gradientTransform="matrix(1 0 0 -1 0 1080)">
					<stop  offset="0" style="stop-color:#6960F1"/>
					<stop  offset="1" style="stop-color:#FF79FF"/>
				</linearGradient>
				<circle style="fill:url(#SVGID_00000072998227315348798970000015186542653734970762_);" cx="785.6" cy="383.7" r="30.9"/>
				
					<linearGradient id="SVGID_00000005252729858042052290000009774593597463534735_" gradientUnits="userSpaceOnUse" x1="713.5411" y1="665.4194" x2="627.8011" y2="665.4194" gradientTransform="matrix(1 0 0 -1 0 1080)">
					<stop  offset="0" style="stop-color:#FF88FF"/>
					<stop  offset="1" style="stop-color:#FF1EA8"/>
				</linearGradient>
				<circle style="fill:url(#SVGID_00000005252729858042052290000009774593597463534735_);" cx="670.7" cy="414.6" r="42.9"/>
				
					<linearGradient id="SVGID_00000140009261747055597660000003700169895786818996_" gradientUnits="userSpaceOnUse" x1="579.8011" y1="792.1794" x2="535.981" y2="792.1794" gradientTransform="matrix(1 0 0 -1 0 1080)">
					<stop  offset="0" style="stop-color:#6960F1"/>
					<stop  offset="1" style="stop-color:#FF79FF"/>
				</linearGradient>
				<circle style="fill:url(#SVGID_00000140009261747055597660000003700169895786818996_);" cx="557.9" cy="287.8" r="21.9"/>
				
					<linearGradient id="SVGID_00000160171559583522119440000016995272332856746396_" gradientUnits="userSpaceOnUse" x1="500.4511" y1="763.5294" x2="448.2511" y2="763.5294" gradientTransform="matrix(1 0 0 -1 0 1080)">
					<stop  offset="0" style="stop-color:#59C3E8"/>
					<stop  offset="0.2992" style="stop-color:#8AD0B5"/>
					<stop  offset="0.618" style="stop-color:#B7DC85"/>
					<stop  offset="0.8619" style="stop-color:#D3E467"/>
					<stop  offset="1" style="stop-color:#DEE75C"/>
				</linearGradient>
				<path style="fill:url(#SVGID_00000160171559583522119440000016995272332856746396_);" d="M500.5,316.5
					c0,14.4-11.7,26.1-26.1,26.1s-26.1-11.7-26.1-26.1s11.7-26.1,26.1-26.1C488.8,290.4,500.5,302.1,500.5,316.5z"/>
				<g>
					
						<linearGradient id="SVGID_00000140712808860887628500000013944911182361780654_" gradientUnits="userSpaceOnUse" x1="663.011" y1="565.9694" x2="627.0511" y2="565.9694" gradientTransform="matrix(1 0 0 -1 0 1080)">
						<stop  offset="0" style="stop-color:#59C3E8"/>
						<stop  offset="0.2992" style="stop-color:#8AD0B5"/>
						<stop  offset="0.618" style="stop-color:#B7DC85"/>
						<stop  offset="0.8619" style="stop-color:#D3E467"/>
						<stop  offset="1" style="stop-color:#DEE75C"/>
					</linearGradient>
					<path style="fill:url(#SVGID_00000140712808860887628500000013944911182361780654_);" d="M663,514c0,9.9-8.1,18-18,18
						c-9.9,0-18-8-18-18s8.1-18,18-18C655,496.1,663,504.1,663,514z"/>
				</g>
				<g>
					
						<linearGradient id="SVGID_00000119819840100036024970000015905065441195229853_" gradientUnits="userSpaceOnUse" x1="745.7512" y1="795.7294" x2="629.1511" y2="795.7294" gradientTransform="matrix(1 0 0 -1 0 1080)">
						<stop  offset="0" style="stop-color:#FF63B3"/>
						<stop  offset="1" style="stop-color:#FFE578"/>
					</linearGradient>
					<circle style="fill:url(#SVGID_00000119819840100036024970000015905065441195229853_);" cx="687.5" cy="284.3" r="58.3"/>
				</g>
				<g>
					
						<linearGradient id="SVGID_00000135649550429965469030000014855453301128950178_" gradientUnits="userSpaceOnUse" x1="455.261" y1="685.2794" x2="342.1011" y2="685.2794" gradientTransform="matrix(1 0 0 -1 0 1080)">
						<stop  offset="0" style="stop-color:#6960F1"/>
						<stop  offset="1" style="stop-color:#FF79FF"/>
					</linearGradient>
					<circle style="fill:url(#SVGID_00000135649550429965469030000014855453301128950178_);" cx="398.7" cy="394.7" r="56.6"/>
				</g>
				<g>
					
						<linearGradient id="SVGID_00000007406510637408363650000010824165391188500614_" gradientUnits="userSpaceOnUse" x1="522.0811" y1="685.9894" x2="479.781" y2="685.9894" gradientTransform="matrix(1 0 0 -1 0 1080)">
						<stop  offset="0" style="stop-color:#FF88FF"/>
						<stop  offset="1" style="stop-color:#FF1EA8"/>
					</linearGradient>
					<circle style="fill:url(#SVGID_00000007406510637408363650000010824165391188500614_);" cx="500.9" cy="394" r="21.2"/>
				</g>
				<g>
					
						<linearGradient id="SVGID_00000015315622664544627990000010175117434436947865_" gradientUnits="userSpaceOnUse" x1="461.101" y1="488.8094" x2="412.081" y2="488.8094" gradientTransform="matrix(1 0 0 -1 0 1080)">
						<stop  offset="0" style="stop-color:#FF88FF"/>
						<stop  offset="1" style="stop-color:#FF1EA8"/>
					</linearGradient>
					<circle style="fill:url(#SVGID_00000015315622664544627990000010175117434436947865_);" cx="436.6" cy="591.2" r="24.5"/>
				</g>
				<g>
					
						<image style="overflow:visible;opacity:0.2;enable-background:new    ;" width="2775" height="2144" xlink:href="43986AC9.png"  transform="matrix(0.24 0 0 0.24 201.4002 92.8002)">
					</image>
					<g>
						<g>
							<path class="st36" d="M293.6,257.4c-1.1,0.3-2,0.3-2,0.3l0-0.2c1.1-0.8,3.8-3.5,4.1-4.7c0.2-0.5,0-0.7,0-0.7l-3.4,1.5
								l-2.9,1.3l0,0c-2-2.1-5-3.4-8.3-3.4c-6,0-10.8,4.2-10.8,9.4c0,1,0.1,2.7,0.4,3.6c0,0.3,0-0.3,0,0c-3.8-0.1-8.8-1.7-13.1-3.9
								c-8.6-4.4-9.2-7.4-9.2-7.4c-1.4,1.4-2.1,6.2-0.7,10c0.9,2.4,3.9,4.5,3.9,4.5l0,0c0,0-1.3,0-2.8-0.5c-1.4-0.5-1.9-1-1.9-1
								c-0.8,2.1,0.8,5.7,3.8,8.4c1.7,1.5,4.8,2.5,4.8,2.5l-4.9,0.1c-0.3,4.7,9.9,7.5,9.9,7.5l0,0c-3,2.3-6.4,3.7-10.2,3.7
								c-1.9,0-3.8-0.3-5.6-0.8c4.9,4,11.2,6.8,18.1,6.5c18.2-1,28.5-16.6,28.9-32l0,0c0,0,0.8-0.4,2.7-2.2c1.8-1.8,3-4,3-4
								S294.8,257,293.6,257.4z"/>
							<g>
								<path class="st36" d="M249.6,382.8L249.6,382.8L249.6,382.8z"/>
								<path class="st36" d="M249.6,382.8C249.6,383.1,249.6,382.9,249.6,382.8L249.6,382.8z"/>
								<path class="st36" d="M233.3,423h-16.4c-7.3,0-13.2-5.9-13.2-13.2v-14.5c0-7.3,5.9-13.2,13.2-13.2h16.4
									c7.3,0,13.2,5.9,13.2,13.2v14.5C246.5,417.1,240.5,423,233.3,423z M216.8,385.1c-5.7,0-10.3,4.6-10.3,10.3v14.5
									c0,5.7,4.6,10.3,10.3,10.3h16.4c5.7,0,10.3-4.6,10.3-10.3v-14.5c0-5.7-4.6-10.3-10.3-10.3H216.8z"/>
								<path class="st36" d="M225.1,414.3c-6.5,0-11.8-5.3-11.8-11.8c0-6.5,5.3-11.8,11.8-11.8c6.5,0,11.8,5.3,11.8,11.8
									C236.8,409.1,231.5,414.3,225.1,414.3z M225.1,393.8c-4.9,0-8.8,4-8.8,8.8s4,8.8,8.8,8.8s8.8-4,8.8-8.8
									S229.9,393.8,225.1,393.8z"/>
								<path class="st36" d="M239.1,391.2c0,1.3-1.1,2.4-2.4,2.4s-2.4-1.1-2.4-2.4s1.1-2.4,2.4-2.4
									C238,388.8,239.1,389.8,239.1,391.2z"/>
							</g>
							<path class="st36" d="M403.7,282.2v-21.6h7.2l1.1-8.4h-8.3v-5.4c0-2.4,0.7-4.1,4.2-4.1h4.4v-7.5c-0.8-0.1-3.4-0.3-6.5-0.3
								c-6.4,0-10.8,3.9-10.8,11.1v6.2h-7.3v8.4h7.3v21.6L403.7,282.2L403.7,282.2z"/>
							<g>
								<path class="st36" d="M584.1,158.9L584.1,158.9L584.1,158.9z"/>
								<path class="st36" d="M584.1,158.9C584.1,159.2,584.1,158.9,584.1,158.9L584.1,158.9z"/>
								<path class="st36" d="M557.9,200.3c-4,0-7.9-1-11.3-3l-8.9,3l1.8-9.4c-2.8-3.9-4.4-8.5-4.4-13.4c0-12.5,10.2-22.7,22.7-22.7
									s22.7,10.2,22.7,22.7C580.7,190.1,570.5,200.3,557.9,200.3z M547,193.6l0.7,0.4c3.1,1.9,6.6,3,10.2,3
									c10.7,0,19.4-8.7,19.4-19.4c0-10.7-8.7-19.4-19.4-19.4c-10.7,0-19.4,8.7-19.4,19.4c0,4.3,1.4,8.5,4.1,11.9l0.5,0.6l-1,5.1
									L547,193.6z"/>
								<path class="st36" d="M546.4,168.9c0,0,1.3-2.3,2.4-2.5c1.1-0.1,2.5-0.1,2.9,0.6s2.1,4.8,2.1,4.8s0.3,0.7-0.2,1.4
									c-0.4,0.7-1.4,1.7-1.4,1.7s-0.6,0.7,0,1.5c0.6,0.8,1.4,2.1,3.2,3.9c1.8,1.8,5.2,3,5.2,3s0.5,0.1,0.8-0.2
									c0.3-0.3,2-2.4,2-2.4s0.5-0.7,1.4-0.3c0.9,0.4,4.8,2.4,4.8,2.4s0.5,0.2,0.5,0.9c0,0.7-0.3,2.4-0.8,2.9s-2.2,2.3-4.7,2.3
									s-8.5-2-11.6-5.2c-3.2-3.2-6-6.4-6.7-9.3C545.5,171.4,545.6,170.1,546.4,168.9z"/>
							</g>
							<path class="st36" d="M508.1,391.8c1.3-6.6-2.1-8.2-2.1-8.2c-4.9-2.4-8.4,0.2-8.4,0.2c-6.6,5.3-2.2,9.4-2.2,9.4l0,0l-0.6,2.6
								l0,0c0,0-5.4-1-3.4-8.5c2.1-7.7,12.8-9,16.3-6.4c0.2,0.1,0.3,0.2,0.5,0.3c1.5,1,7.5,5.5,3.3,13.3c0,0-4.7,8.8-11.4,3l0,0
								l-1.2,5.1l0,0l-2.5,3.7l0,0l-1.1-4.6l0,0l2.4-9.3l0,0c0,0-1.5-3.8,1.3-6.3l0.1-0.1c0.5-0.5,1.2-0.6,1.9-0.4
								c0.7,0.2,1.4,0.9,1.3,2.7c0,0-0.3,2.2-1.4,5.5l0,0c0,0,0.8,4.5,5,1.8l0,0C505.9,395.8,507.6,394.3,508.1,391.8z"/>
							<g>
								<path class="st36" d="M289.6,478.7L289.6,478.7L289.6,478.7z"/>
								<path class="st36" d="M289.6,478.7C289.6,478.9,289.6,478.7,289.6,478.7L289.6,478.7z"/>
								<path class="st36" d="M309,485.4c0.8,1,1.1,2.3,1.1,3.7c0,1.5-0.4,2.7-1.1,3.6c-0.4,0.5-1,1-1.9,1.4
									c1.2,0.5,2.2,1.2,2.8,2.2c0.6,1,0.9,2.2,0.9,3.6c0,1.5-0.4,2.7-1.1,3.9c-0.5,0.8-1,1.4-1.7,1.9c-0.8,0.6-1.7,1-2.8,1.2
									s-2.2,0.3-3.4,0.3h-11v-24.4h11.8C305.7,482.9,307.8,483.7,309,485.4z M295.8,487v5.4h5.9c1.1,0,1.9-0.2,2.6-0.6
									c0.7-0.4,1-1.1,1-2.1c0-1.1-0.4-1.9-1.3-2.2c-0.8-0.2-1.7-0.4-2.9-0.4L295.8,487L295.8,487z M295.8,496.5v6.5h5.9
									c1.1,0,1.9-0.1,2.5-0.4c1.1-0.5,1.6-1.5,1.6-3c0-1.3-0.5-2.1-1.6-2.6c-0.6-0.3-1.4-0.4-2.4-0.4L295.8,496.5L295.8,496.5z"/>
								<path class="st36" d="M324.6,489.5c1.2,0.5,2.2,1.4,3,2.6c0.7,1,1.2,2.2,1.4,3.6c0.1,0.8,0.2,2,0.2,3.5h-12.7
									c0.1,1.8,0.7,3,1.8,3.7c0.7,0.4,1.5,0.7,2.5,0.7c1,0,1.9-0.3,2.5-0.8c0.3-0.3,0.7-0.7,0.9-1.2h4.7c-0.1,1-0.7,2.1-1.7,3.2
									c-1.6,1.7-3.7,2.5-6.6,2.5c-2.3,0-4.4-0.7-6.1-2.1s-2.7-3.8-2.7-7c0-3,0.8-5.3,2.4-6.9s3.7-2.4,6.2-2.4
									C322,488.7,323.4,489,324.6,489.5z M317.8,493.5c-0.6,0.7-1.1,1.6-1.2,2.7h7.8c-0.1-1.2-0.5-2.1-1.2-2.8
									c-0.7-0.6-1.6-0.9-2.7-0.9C319.3,492.5,318.4,492.8,317.8,493.5z"/>
								<rect x="314.6" y="483.6" class="st36" width="11.8" height="3.7"/>
							</g>
							<g>
								<path class="st36" d="M817.5,264.4L817.5,264.4L817.5,264.4z"/>
								<path class="st36" d="M817.5,264.4C817.4,264.7,817.5,264.4,817.5,264.4L817.5,264.4z"/>
								<rect x="822.9" y="274.5" class="st37" width="8.5" height="26.9"/>
								<circle class="st37" cx="827.1" cy="265.8" r="5"/>
								<path class="st37" d="M854.4,273.5c-5.8,0-8.2,3-8.9,4.1v-3.1H837v26.9h8.5v-15.9c0,0,0.7-4.7,4.7-4.7c4,0,4.7,4.3,4.7,5.6
									v15.2h8.5v-16C863.4,280.4,861.5,273.5,854.4,273.5z"/>
							</g>
							<g id="XMLID_00000023265344184373249660000003783904320141604520_">
								<g id="XMLID_00000048469248267415552590000017644863654789446335_">
									<g id="XMLID_00000105427105598064245680000013717540136934364032_">
										<g id="XMLID_00000154421431576356533870000009513585331040945594_">
											<g id="XMLID_00000008149338515796728900000002016766858259239057_">
												<g id="XMLID_00000101097992775544389920000011470739895981173377_">
													<path class="st36" d="M443.6,375.4l-2.6,0.1l-1.3-1.4l-0.3-2.3l-1.3,0.8l-0.6,2.8l-2-2l-0.2-1.9l-1.9-1.5l-0.7-0.7
														l-2.1,0.1l0.7,1.9l2.6,1.3l0.5,0.5l-0.5,0.3l0.1,1.5l-1.2,0.6l-1.1-0.2l-0.7-0.9l1.7,0l0.4-0.7l-3.9-2.5l-0.3-1.1
														l-1.5,1.5l-1.6-0.3l-2.3,3.2l-0.4,1.2l-1.5,0.2l-2.3,0.1l-1.4-0.6l-0.5-2.7l0.4-1.3l2.3-0.6l2.5,0.4l0.3-1.4l-1.1-0.2
														l0.3-2.2l2.5-0.5l1.7-2.6l1.8-0.4l1.7,0.2l0.6,0l-0.4-2.3l-2,0.9l-0.8-1.7l-1.2-0.1l-0.3-1.2l0.9-1.1l2.2-1l0.6-1.1
														c-8.9-7.3-20.3-11.5-32.6-11.2c0,0-0.1,0-0.1,0c-10.8,0.4-20.6,4.2-28.4,10.3l2.5-0.1l1.1,0.6l2.1,0.4l0.2,0.8l3.3,0
														l-0.5-1l-2.9,0l0.7-0.7l-0.3-0.8l-2.7,0.1l2.8-2.3l2.8-0.1l1.4,1.8l2.2,0l1.3-1.3l1,0.5l-1.7,1.8c0,0-2.5,0.1-2.4,0.1
														c0.1,0,0.3,1.7,0.3,1.7l3-0.2l0.3-0.8l2.1-0.2l0.2-1.2l-1.2-0.2l0.4-1.1l0.9-0.3l3.3,0l-1.8,1.7l0.3,1.2l1.9,0.2
														l-0.2-2.3l1.8-1l3.2-0.5l3.7,1.5l0.9,0.4l0.1,1.8l1.5,0.3l-0.7,1.4l-1.7,0.1l-0.4,0l-0.6,1.6l-4.8-1l3.7-2.1l-1.5-1.2
														l-3.2,0.5l-0.3,0.3h0l0,0.1l-0.9,1l-1.5,0.2l0.1,0.8l0.5,0.2l0,0.2l-1.2,0.2l-0.1,0.7l-1.2,0.1l-0.3-1.4l-2.1,0.7
														l-4.3,2.7l0.6,1.8l1.2,0.8l2.5,0.3l0.1,2.8l1.1-0.2l1-2.2l2.6-0.9l-0.1-3.3l1.4-1.2l3.5,0.7l-0.2,2.2l0.9,0l2.5-1.3
														l0.2,2.9l0.9,0.5l1,0.6l0,1.7l-0.9,0.3l0.1,1.2l1.4,0.6v1.2l-0.6,0.1c0,0,0,0,0,0l-0.8-0.2l-2-0.5l-0.2-0.9l0,0
														l0.8-0.6l0-0.8l-0.9-0.2l-0.2,0.7l-1.5,0.3l-0.2,0v0.1l-0.5,0.1l-0.4-0.8l-0.5-0.2l-1.1,0l-0.5,0.4l0,0.9l0.9,0.3
														l0.9,0.1l-0.2,0.1l-0.8,0.9l-0.4-0.4l-0.8-0.2l-2.1,2.1l0.3,0.2l-3.1,1.9l-2.9,3.2l-0.2,1.4l-2.9,2.1L378,382l0.3,3
														l-2.1-0.9l0-1.8l-5.8,0.2l-2.9,1.6l-1.2,2.4l-0.4,1.9l0.9,1.8l2.4,0.2l3.7-2.6l0.4,1.2l-1.1,2.2l2.9,0.4l0.4,4.4
														l3.9,0.5l2.4-3l3,0.5l1.1,1.4l2.9-0.3l0.1-0.8l1.6,0.7l1.9,2.7l3.1-0.1l1.2,2l0.2,2.4l2.2,0.8l1.2,0.4l4.3-0.1l1.3,2
														l1.9,0.5l-0.3,1.7l-2,2.7l-0.4,5.9l-1.8,1.6l-2.8,0l-0.9,1.7v0l0.8,3l-0.7,0.9l-2.3,3.1l-0.9,1.8l-2.8,1.5l-1.9,0.3
														l0,0.8l1.3,0.3l-0.1,0.9l-1.2,1.2l0.8,0.9l1.5,0l0,1.1l-0.3,1.1l-0.1,0.9l2.2,1.7l-0.2,0.9l-2.9,0l-3-2.4l-2.4-3.9
														l0.2-3.8l-1.8-2.2l0.6-3.9l-1-0.2l-0.3-8.4c0,0-2.9-2.1-3.1-2.1c-0.2,0-1.5-0.3-1.5-0.3l-0.3-1.6l-3.9-4.5l0.3-1.7
														l0-2.7l2.5-1.9l-0.5-3l-3.8-0.2l-3-3.2l-2.1-0.5l-1.3-0.2l0.1-1.2l-1.7-0.2l0,0.7l-4.3-0.9l-1.8-2.6l0.7-1.3l-2.8-3.8
														l-0.6-2.9l-1.1,0l0.5,2.8l2,2.8l-0.2,1.2l-1.6-0.2l-2.1-3.3l-0.1-3.9l-2.1-0.9l-0.1-2.8c-2.3,6-3.5,12.5-3.3,19.3
														c0.9,27,23.6,48.2,50.6,47.3c0,0,0.1,0,0.1,0c15.3-0.5,28.7-8.1,37.3-19.4l-1.6,0l-0.1-3.3l-1.9-2.5l-0.1-3.9l-1.5-1.4
														l-0.2-1.6l1.7-3.5l-3.6-6l0.3-4.1l-3.1-0.2l-1.2-1.1l-2.1,0.1l-1,1l-3.7,0.1l-0.1,0.3l-2,0.1l-4.9-5.2l-0.1-4.2
														l0.8-0.3l0.2-1.6l-1.1,0l-0.5-1.7l5.3-4.1l-0.1-2.8l2.6-1.6l1.1,0.1l2.2-0.1l1.7-1l5.5-0.6l0.1,2.8l4.4,1l0.9,0.6
														l0.8,0l-0.1-1.5l2.5-0.3l2.4,1.7l3.9-0.1l0.3-0.3C444.6,378,444.1,376.7,443.6,375.4z M420,362.3l0.4-0.7l1.6-0.4
														l0.5,1.9l0.9,1.4l0.6,0.6l1.1,0.4l-0.9,1.2l-1.9,0.2l-1.4,0l0.1-1.7l1.2-0.3l-0.1-0.8l-1.1-0.7l-0.8-0.5L420,362.3z
														 M417.5,365.4l0.9-1.6l1.3-0.3l0.9,0.4l-0.1,1.1l-1.9,1.5l-1.2,0L417.5,365.4z M392,371.1l1.4,0l0.3-0.8l0.6,0l0.6,0.1
														l-0.2,0.6l-0.7,0.1l-0.1,0.7l-0.5,0.3l-0.9,0.1c0-0.2-0.1-0.3-0.1-0.3l-0.3,0L392,371.1z M390.1,372.5l0-0.7l0.4-0.6
														l0.6,0.5l-0.1,0.7L390.1,372.5z"/>
												</g>
											</g>
										</g>
									</g>
								</g>
							</g>
							<g>
								<g>
									<path class="st36" d="M691.6,279.5l7-2.9l-1.7-8.2l-7.3,0.6c-0.9-2-2.1-3.8-3.6-5.3l2.8-6.8l-7-4.7l-4.7,5.6
										c-2-0.7-4.1-1.1-6.3-1.1l-2.8-6.8l-8.2,1.7l0.6,7.5c-1.8,1-3.5,2.1-4.9,3.5l-7.2-3l-4.7,7l6.1,5.2
										c-0.6,1.8-0.9,3.6-0.9,5.5l-7.6,3.1l1.7,8.2l8.3-0.7c0.8,1.6,1.8,3,3,4.3l-3.2,7.8l7,4.7l5.5-6.4c1.7,0.6,3.4,0.9,5.2,1
										l3.2,7.8l8.2-1.7l-0.7-8.2c1.7-0.8,3.3-1.8,4.7-3l7.4,3.1l4.7-7l-5.9-5C691.1,283.6,691.5,281.6,691.6,279.5z M673.3,291.2
										c-7.3,1.7-14.5-2.9-16.2-10.2c-1.7-7.3,2.9-14.5,10.2-16.2c7.3-1.7,14.5,2.9,16.2,10.2
										C685.1,282.3,680.6,289.6,673.3,291.2z"/>
									<path class="st36" d="M729.6,283.8l4.9-1.3l-0.4-5.6l-5-0.3c-0.4-1.4-1.1-2.7-1.9-3.9l2.5-4.3l-4.2-3.7l-3.7,3.3
										c-1.3-0.6-2.7-1.1-4.1-1.3l-1.3-4.8l-5.6,0.4l-0.3,5.1c-1.3,0.5-2.5,1.1-3.6,1.9l-4.5-2.6l-3.7,4.2l3.6,4
										c-0.5,1.1-0.9,2.3-1.1,3.6l-5.3,1.4l0.4,5.6l5.6,0.3c0.4,1.1,1,2.2,1.6,3.2l-2.9,4.9l4.2,3.7l4.2-3.8
										c1.1,0.5,2.2,0.9,3.3,1.2l1.4,5.5l5.6-0.4l0.3-5.5c1.2-0.4,2.4-0.9,3.4-1.6l4.7,2.7l3.7-4.2l-3.5-3.9
										C728.9,286.4,729.3,285.1,729.6,283.8z M716.3,290c-5,0.5-9.4-3.2-9.9-8.2c-0.4-5,3.2-9.4,8.2-9.9s9.4,3.2,9.9,8.2
										C725,285.1,721.3,289.5,716.3,290z"/>
								</g>
								<path class="st36" d="M704.8,313l3.4-0.3l0.4-3.8l-3.3-0.8c-0.1-1-0.4-1.9-0.8-2.8l2.1-2.5l-2.4-3l-2.8,1.8
									c-0.8-0.6-1.6-1-2.6-1.4l-0.3-3.3l-3.8-0.4l-0.8,3.3c-0.9,0.2-1.8,0.5-2.6,0.8l-2.7-2.3l-3,2.4l1.9,3.1
									c-0.5,0.7-0.9,1.5-1.2,2.3l-3.7,0.3l-0.4,3.8l3.7,0.8c0.1,0.8,0.4,1.6,0.7,2.3l-2.5,2.9l2.4,3l3.2-2
									c0.6,0.5,1.3,0.9,2.1,1.2l0.3,3.8l3.8,0.4l0.8-3.6c0.9-0.1,1.7-0.3,2.4-0.7l2.8,2.4l3-2.4l-1.9-3
									C704,314.7,704.5,313.9,704.8,313z M695.3,315.6c-3.4-0.3-5.9-3.2-5.6-6.6c0.3-3.4,3.2-5.9,6.6-5.6s5.9,3.2,5.6,6.6
									S698.7,315.8,695.3,315.6z"/>
							</g>
							<g>
								<path class="st36" d="M768.3,193.1h34.4c1.1,0,2-0.9,2-2v-23.6v0c0-1.1-0.9-2-2-2l0,0h-34.2h-0.2c-1.1,0-2,0.9-2,2v23.6
									C766.3,192.2,767.2,193.1,768.3,193.1z M780.1,178.2l-11.9,11.9v-20.9L780.1,178.2z M802.8,169.4v19.8L791.5,178
									L802.8,169.4z M790,179.1C790,179.2,790.1,179.2,790,179.1l12.2,12.1h-32.6l11.9-11.9l3.5,2.6c0.2,0.1,0.4,0.2,0.6,0.2
									s0.4-0.1,0.6-0.2L790,179.1z M802.3,167.4l-16.7,12.7l-16.9-12.7H802.3z"/>
							</g>
							<g>
								<path class="st36" d="M392.3,510.8h0.9v3.8c0,0.2,0.1,0.4,0.3,0.5c0.1,0,0.2,0.1,0.3,0.1c0.1,0,0.2,0,0.3-0.1l6.1-4.3h5.7
									l2.8,2c0.1,0.1,0.2,0.1,0.3,0.1c0.1,0,0.2,0,0.3-0.1c0.2-0.1,0.3-0.3,0.3-0.5v-3.6h1c1.4,0,2.7-1.4,2.7-2.9v-8
									c0-1.5-1.1-2.5-2.7-2.5H397c-1.4,0-2.8,0.9-2.9,2.5h-1.8c-1.6,0-2.8,1.1-2.8,2.5v8C389.5,509.6,390.8,510.8,392.3,510.8z
									 M395.4,497.7c0-0.8,0.9-1.3,1.7-1.3h13.8c0.8,0,1.4,0.5,1.4,1.3v8c0,0.8-0.6,1.7-1.4,1.7h-1.6c-0.3,0-0.6,0.3-0.6,0.6v3
									l-5.2-3.5c-0.1-0.1-0.2-0.1-0.3-0.1h-6c-0.8,0-1.7-0.9-1.7-1.7L395.4,497.7L395.4,497.7z M390.8,500.1
									c0-0.8,0.8-1.2,1.6-1.2h1.8v6.9c0,1.5,1.4,2.9,2.9,2.9h5.8l1.3,0.9h-4.1c-0.1,0-0.2,0-0.3,0.1l-5.3,3.7v-3.2
									c0-0.3-0.3-0.6-0.6-0.6h-1.5c-0.8,0-1.6-0.7-1.6-1.5L390.8,500.1L390.8,500.1z"/>
							</g>
							<g>
								<path class="st36" d="M547.1,299.8h18.2c0.4,0,0.8-0.3,0.8-0.8c0-0.4,0-0.8-0.1-1.1h4.3c0.4,0,0.8-0.3,0.8-0.8
									c0-5.8-4.2-10.7-5.5-12c1.3-1.1,2.2-2.8,2.2-4.7c0-3.3-2.7-6.1-6.1-6.1c-1.2,0-2.4,0.4-3.4,1.1c-0.7-0.2-1.4-0.4-2.1-0.4
									c-3.5,0-6.4,2.9-6.4,6.4c0,2,0.9,3.7,2.3,4.9c-1.6,1.6-5.8,6.4-5.8,12.7C546.3,299.4,546.7,299.8,547.1,299.8z M569.5,296.3
									h-3.7c-0.9-5-4.2-8.7-5.6-10c0,0,0,0,0.1,0c0.5,0.1,0.9,0.2,1.4,0.2c0.9,0,1.8-0.2,2.5-0.6
									C565,286.6,569.2,291.1,569.5,296.3z M561.7,275.8c2.5,0,4.5,2,4.5,4.5s-2,4.5-4.5,4.5c-0.1,0-0.1,0-0.2,0
									c0.7-1,1.1-2.2,1.1-3.5c0-2.1-1.1-4-2.7-5.2C560.5,276,561.1,275.8,561.7,275.8z M551.3,281.4c0-2.7,2.2-4.9,4.9-4.9
									c2.7,0,4.9,2.2,4.9,4.9s-2.2,4.9-4.9,4.9C553.5,286.3,551.3,284.1,551.3,281.4z M553.4,287.1c0.8,0.4,1.8,0.6,2.8,0.6
									c1,0,1.9-0.2,2.7-0.6c1,1,5.2,5.3,5.6,11.1h-16.6C548.2,292.5,552.3,288.2,553.4,287.1z"/>
							</g>
							<g>
								<path class="st36" d="M651.2,122.8h37.6c0.5,0,0.9-0.4,0.9-0.9v-21.2c0-0.5-0.4-0.9-0.9-0.9h-37.6c-0.5,0-0.9,0.4-0.9,0.9
									v21.2C650.3,122.4,650.7,122.8,651.2,122.8z M652.1,101.6h35.8V121h-35.8V101.6z"/>
								<path class="st36" d="M649,127.7h16.2c-0.2,1.7-0.9,5.1-2.5,6.1h-6.5c-0.7,0-1.2,0.5-1.2,1.2c0,0.7,0.5,1.2,1.2,1.2h27.9
									c0.7,0,1.2-0.5,1.2-1.2c0-0.7-0.5-1.2-1.2-1.2h-5.9c-1.6-1-2.3-4.4-2.5-6.1h15c2,0,3.6-1.6,3.6-3.6V98.6
									c0-2-1.6-3.6-3.6-3.6H649c-2,0-3.6,1.6-3.6,3.6V124C645.4,126.1,647,127.7,649,127.7z M675.2,133.8H666
									c1.3-2.2,1.6-5.1,1.7-6.1h5.7C673.5,128.6,673.9,131.5,675.2,133.8z M647.8,98.6c0-0.7,0.5-1.2,1.2-1.2h41.9
									c0.7,0,1.2,0.5,1.2,1.2V124c0,0.7-0.5,1.2-1.2,1.2H649c-0.7,0-1.2-0.5-1.2-1.2V98.6z"/>
							</g>
							<g>
								<path class="st36" d="M789.5,395.6c0-2.1-1.7-3.8-3.8-3.8c-2.1,0-3.8,1.7-3.8,3.8c0,2.1,1.7,3.8,3.8,3.8
									C787.8,399.4,789.5,397.7,789.5,395.6z"/>
								<path class="st36" d="M785.6,385.6c-3.5,0-6.7,1.6-8.9,4.3c-0.4,0.4-0.3,1.1,0.2,1.4c0.2,0.2,0.4,0.2,0.6,0.2
									c0.3,0,0.6-0.1,0.8-0.4c1.8-2.2,4.5-3.5,7.3-3.5c2.9,0,5.5,1.3,7.3,3.5c0.4,0.4,1,0.5,1.4,0.2c0.4-0.3,0.5-1,0.2-1.4
									C792.3,387.1,789.1,385.6,785.6,385.6z"/>
								<path class="st36" d="M785.4,377.4L785.4,377.4c-5.5,0-10.7,2.6-14.1,6.9c-0.3,0.4-0.3,1.2,0.2,1.5c0.2,0.2,0.4,0.2,0.6,0.2
									c0.3,0,0.6-0.2,0.8-0.5c3.1-3.8,7.6-6.1,12.5-6.1l0,0c4.9,0,9.4,2.3,12.5,6.1c0.4,0.4,1,0.6,1.4,0.2c0.4-0.3,0.5-1,0.2-1.5
									C796,380,790.9,377.4,785.4,377.4z"/>
								<path class="st36" d="M785.6,370c-7.6,0-14.6,3.4-19.3,9.3c-0.3,0.4-0.3,1.1,0.2,1.4c0.2,0.2,0.4,0.2,0.6,0.2
									c0.3,0,0.6-0.1,0.8-0.4c4.3-5.4,10.8-8.5,17.7-8.5c6.9,0,13.4,3.1,17.7,8.5c0.4,0.4,1,0.5,1.4,0.2c0.4-0.3,0.5-1,0.2-1.4
									C800.1,373.4,793.1,370,785.6,370z"/>
							</g>
							<g>
								<path class="st36" d="M678.6,410.9l-11.3-5.6c-0.2-0.1-0.4-0.1-0.6-0.1c-1.6,0-3,1.3-3,2.8v12c0,1.5,1.4,2.8,3,2.8
									c0.2,0,0.4,0,0.6-0.1l11.3-5.6c1.5-0.8,2.3-1.8,2.3-3.1C681,413.1,680.5,411.9,678.6,410.9z M677.6,414.9l-11,5.4
									c-0.2-0.1-0.3-0.2-0.3-0.3v-12c0-0.1,0.1-0.2,0.3-0.3l10.9,5.4c0.6,0.3,1,0.6,1,0.9C678.5,414.1,678.5,414.5,677.6,414.9z"
									/>
								<path class="st36" d="M693.8,426.9v-25.6c0-3.1-2.5-5.6-5.6-5.6h-34.9c-3.1,0-5.6,2.5-5.6,5.6v25.6c0,3.1,2.5,5.6,5.6,5.6
									h34.9C691.3,432.5,693.8,430,693.8,426.9z M650.1,426.9v-25.6c0-1.7,1.4-3.1,3.1-3.1h34.9c1.7,0,3.1,1.4,3.1,3.1v25.6
									c0,1.7-1.4,3.1-3.1,3.1h-34.9C651.5,430,650.1,428.6,650.1,426.9z"/>
							</g>
							<g>
								<path class="st36" d="M441.7,582c-1.9,0-3.8,0.8-5.1,2.3c-1.3-1.4-3.1-2.3-5.1-2.3c-3.8,0-6.8,3.1-6.8,6.8
									c0,1.5,0.5,2.8,1.6,4.2c0.5,0.6,1,1.1,1.5,1.7l0.4,0.4c1.1,1.2,2.3,2.3,3.4,3.4c0.6,0.5,1.1,1.1,1.7,1.7
									c0.6,0.6,1.1,1.1,1.7,1.7l1.2,1.2c0.1,0.1,0.3,0.3,0.4,0.3l0,0c0.2,0,0.3-0.1,0.4-0.3c0.4-0.4,0.9-1,1.3-1.4
									c0.8-0.8,1.6-1.6,2.4-2.4c1.1-1.1,2.1-2.1,3.2-3.2c0.2-0.2,0.5-0.5,0.7-0.7c1.8-1.7,3.8-3.7,3.8-6.6
									C448.5,585.1,445.4,582,441.7,582z M443.8,594.5c-0.2,0.2-0.5,0.5-0.7,0.7c-1.1,1.1-2.1,2.1-3.2,3.2
									c-0.8,0.8-1.6,1.6-2.4,2.4c-0.3,0.3-0.6,0.6-0.9,0.9l-0.8-0.8c-0.6-0.6-1.1-1.1-1.7-1.7c-0.6-0.6-1.1-1.1-1.7-1.7
									c-1.1-1.1-2.3-2.3-3.4-3.4l-0.4-0.4c-0.5-0.5-1-1.1-1.5-1.6c-0.9-1.1-1.3-2.1-1.3-3.4c0-3.1,2.5-5.5,5.6-5.5
									c1.8,0,3.5,0.9,4.5,2.4l0,0.1c0.1,0.2,0.3,0.3,0.5,0.3l0,0c0.2,0,0.4-0.2,0.5-0.3c1-1.5,2.7-2.4,4.6-2.4
									c3.1,0,5.6,2.5,5.6,5.5C447.2,591.2,445.5,592.8,443.8,594.5z"/>
							</g>
							<g>
								<path class="st36" d="M486.6,324.4v-12.7c0-0.5-0.4-0.9-0.9-0.9h-20.1c-0.5,0-0.9,0.4-0.9,0.9v2.2h-0.8
									c-3.4,0-6.2,2.8-6.2,6.2c0,3.5,2.8,6.2,6.2,6.2h1c1,4.3,5,7.6,9.7,7.6h2.6C482.6,334,486.6,329.9,486.6,324.4z M463.9,324.7
									c-2.4,0-4.4-2-4.4-4.5c0-2.5,2-4.5,4.4-4.5h0.8v8.7c0,0.1,0,0.2,0,0.3L463.9,324.7L463.9,324.7z M466.5,324.4v-11.8h18.3
									v11.8c0,4.5-3.2,7.9-7.6,7.9h-2.6C470.1,332.2,466.5,328.7,466.5,324.4z"/>
								<path class="st36" d="M472,307.7c-0.4,0.3-0.5,0.8-0.2,1.2c0.2,0.2,0.4,0.4,0.7,0.4c0.2,0,0.4-0.1,0.5-0.2
									c0.1-0.1,1.3-1,1.5-2.5c0.1-1.1-0.4-2.1-1.3-3.1c-1.7-1.7-0.3-3.3,0-3.6c0.3-0.3,0.4-0.9,0-1.3c-0.3-0.3-0.9-0.4-1.3,0
									c-0.1,0-1.4,1.3-1.4,3.1c0,1.1,0.4,2.1,1.4,3c0.6,0.6,0.9,1.2,0.8,1.7C472.7,307.2,472,307.7,472,307.7z"/>
								<path class="st36" d="M478.3,307.7c-0.4,0.3-0.5,0.8-0.2,1.2c0.2,0.2,0.4,0.4,0.7,0.4c0.2,0,0.4-0.1,0.5-0.2
									c0.1,0,1.6-1.2,1.8-3c0.1-1.3-0.4-2.5-1.7-3.7c-0.8-0.8-1.1-1.5-1.1-2.4c0-1.4,1.1-2.5,1.1-2.6c0.3-0.3,0.4-0.9,0-1.3
									c-0.3-0.3-0.9-0.4-1.3,0c-0.1,0.1-1.7,1.6-1.7,3.8c0,1.3,0.6,2.5,1.7,3.7c0.8,0.8,1.2,1.6,1.1,2.3
									C479.2,307,478.3,307.7,478.3,307.7z"/>
							</g>
						</g>
					</g>
				</g>
				
					<linearGradient id="SVGID_00000030452119583908539230000005338273893953254048_" gradientUnits="userSpaceOnUse" x1="544.881" y1="241.7259" x2="544.881" y2="83.9182" gradientTransform="matrix(1 0 0 -1 0 1080)">
					<stop  offset="0" style="stop-color:#788199"/>
					<stop  offset="1" style="stop-color:#3A404B"/>
				</linearGradient>
				<path style="fill:url(#SVGID_00000030452119583908539230000005338273893953254048_);" d="M478,872.9h133.8
					c6.4,0,11.7-6.2,11.7-13.8c0-7.6-5.3-13.8-11.7-13.8H478c-6.4,0-11.7,6.2-11.7,13.8C466.3,866.7,471.6,872.9,478,872.9z"/>
				
					<linearGradient id="SVGID_00000053508991316885197860000003939002080104139958_" gradientUnits="userSpaceOnUse" x1="544.881" y1="241.7259" x2="544.881" y2="83.9183" gradientTransform="matrix(1 0 0 -1 0 1080)">
					<stop  offset="0" style="stop-color:#788199"/>
					<stop  offset="1" style="stop-color:#3A404B"/>
				</linearGradient>
				<path style="fill:url(#SVGID_00000053508991316885197860000003939002080104139958_);" d="M611.8,875.7H478
					c-6.4,0-11.7,6.2-11.7,13.8c0,7.6,5.3,13.8,11.7,13.8h133.8c6.4,0,11.7-6.2,11.7-13.8S618.2,875.7,611.8,875.7z"/>
				
					<linearGradient id="SVGID_00000080193339323079285750000008265839464067833012_" gradientUnits="userSpaceOnUse" x1="544.881" y1="241.7258" x2="544.881" y2="83.9178" gradientTransform="matrix(1 0 0 -1 0 1080)">
					<stop  offset="0" style="stop-color:#788199"/>
					<stop  offset="1" style="stop-color:#3A404B"/>
				</linearGradient>
				<path style="fill:url(#SVGID_00000080193339323079285750000008265839464067833012_);" d="M611.8,906.1H478
					c-6.4,0-11.7,6.2-11.7,13.8c0,7.6,5.3,13.8,11.7,13.8h133.8c6.4,0,11.7-6.2,11.7-13.8S618.2,906.1,611.8,906.1z"/>
				
					<linearGradient id="SVGID_00000101077217488798920420000012412201879180891566_" gradientUnits="userSpaceOnUse" x1="544.881" y1="241.7258" x2="544.881" y2="83.9178" gradientTransform="matrix(1 0 0 -1 0 1080)">
					<stop  offset="0" style="stop-color:#788199"/>
					<stop  offset="1" style="stop-color:#3A404B"/>
				</linearGradient>
				<path style="fill:url(#SVGID_00000101077217488798920420000012412201879180891566_);" d="M611.8,936.5H478
					c-6.4,0-11.7,6.2-11.7,13.8l0,0c0,7.6,5.3,13.8,11.7,13.8h21.4l17,14.5v2.5c0,8.5,5.9,15.4,13.1,15.4h30.7
					c7.2,0,13.1-6.9,13.1-15.4v-4.8c5-4.1,10.5-8.6,14.8-12.2h23.6c6.4,0,11.7-6.2,11.7-13.8l0,0
					C623.5,942.7,618.2,936.5,611.8,936.5z"/>
			</g>
		</g>
	</g>
</g>
</svg>
